<svg xmlns="http://www.w3.org/2000/svg" viewBox="0 0 34.4 37.01"><defs><style>.cls-1{fill:none;stroke:#fff;stroke-linecap:round;stroke-linejoin:round;stroke-width:2px;}</style></defs><g id="Layer_2" data-name="Layer 2"><g id="Layer_1-2" data-name="Layer 1"><path id="Icon_feather-phone-2" data-name="Icon feather-phone-2" class="cls-1" d="M33.39,27.74l-.26,5.06A3.38,3.38,0,0,1,29.59,36l-.31,0A33.45,33.45,0,0,1,15,30,32.81,32.81,0,0,1,5.42,19.39,33.34,33.34,0,0,1,1,4.5,3.38,3.38,0,0,1,4.25,1h.3l5.06.27a3.38,3.38,0,0,1,3.22,3.07,21.88,21.88,0,0,0,.93,4.81,3.37,3.37,0,0,1-.94,3.51l-2.26,2a27.05,27.05,0,0,0,9.59,10.65l2.25-2a3.37,3.37,0,0,1,3.6-.57,21.83,21.83,0,0,0,4.68,1.43,3.37,3.37,0,0,1,2.71,3.57Z"/></g></g></svg>