<svg xmlns="http://www.w3.org/2000/svg" width="20.843" height="24.393" viewBox="0 0 20.843 24.393">
  <g id="location" transform="translate(0.506 0.501)">
    <g id="Group_1" data-name="Group 1" transform="translate(-2234.031 -667.147)">
      <path id="Path_10" data-name="Path 10" d="M2243.78,667.153a6.73,6.73,0,0,1,4.949,1.868,6.828,6.828,0,0,1,2.05,4.413,9.8,9.8,0,0,1-.919,4.736,23.736,23.736,0,0,1-2.9,4.857c-.885,1.183-1.814,2.333-2.726,3.5a.4.4,0,0,1-.547.143.406.406,0,0,1-.123-.111,57.478,57.478,0,0,1-4.221-5.683,16.706,16.706,0,0,1-2.053-4.486,7.568,7.568,0,0,1,.323-5.312,6.446,6.446,0,0,1,5.2-3.849c.083-.012.166-.026.249-.031C2243.34,667.176,2243.618,667.166,2243.78,667.153Zm.1,18.549a.99.99,0,0,0,.088-.1c1.031-1.355,2.092-2.688,3.084-4.07a17.976,17.976,0,0,0,2.435-4.556,7.573,7.573,0,0,0,.4-4.275,5.852,5.852,0,0,0-3.4-4.269,6.615,6.615,0,0,0-3.566-.441,5.507,5.507,0,0,0-3.845,2.148,6.434,6.434,0,0,0-1.183,5.432,13.669,13.669,0,0,0,1.632,4.094,39.629,39.629,0,0,0,3.469,4.933c.293.368.584.726.887,1.1Z" fill="#9fe4e8" stroke="#2d8c7f" stroke-width="1"/>
      <path id="Path_11" data-name="Path 11" d="M2243.753,690.538a19.88,19.88,0,0,1-5.986-.886A7.787,7.787,0,0,1,2235,688.2a2.623,2.623,0,0,1-.938-1.516,2.163,2.163,0,0,1,.612-1.88,5.967,5.967,0,0,1,2.213-1.454,13.726,13.726,0,0,1,2.492-.761.4.4,0,0,1,.5.261l.007.027a.389.389,0,0,1-.3.462l-.046.007a11.714,11.714,0,0,0-3.094,1.076,4.119,4.119,0,0,0-1.273.994,1.331,1.331,0,0,0-.019,1.818,4.311,4.311,0,0,0,1.555,1.156,12.947,12.947,0,0,0,3.578,1.08,22,22,0,0,0,5.363.223,15.523,15.523,0,0,0,5.1-1.157,5.077,5.077,0,0,0,1.732-1.142,1.385,1.385,0,0,0,.149-1.953,1.212,1.212,0,0,0-.112-.116,4.791,4.791,0,0,0-1.647-1.131,12.461,12.461,0,0,0-2.684-.854c-.038-.008-.076-.015-.113-.026a.384.384,0,0,1-.274-.467.365.365,0,0,1,.422-.287,10.194,10.194,0,0,1,4.444,1.829,3.409,3.409,0,0,1,.554.565,2.1,2.1,0,0,1-.031,2.814,5.134,5.134,0,0,1-1.773,1.316,13.642,13.642,0,0,1-3.74,1.142A23.281,23.281,0,0,1,2243.753,690.538Z" fill="#9fe4e8" stroke="#2d8c7f" stroke-width="1"/>
      <path id="Path_12" data-name="Path 12" d="M2243.894,669.786a4.056,4.056,0,0,1,4.052,4.062v.007a4.06,4.06,0,0,1-8.119-.021v-.014A4.057,4.057,0,0,1,2243.894,669.786Zm-.011,7.333a3.282,3.282,0,1,0-3.282-3.292A3.288,3.288,0,0,0,2243.883,677.119Z" fill="#9fe4e8" stroke="#2d8c7f" stroke-width="1"/>
    </g>
  </g>
</svg>
