<svg xmlns="http://www.w3.org/2000/svg" viewBox="0 0 46.73 19.04"><defs><style>.cls-1{fill:none;stroke:#fff;stroke-linecap:round;stroke-linejoin:round;stroke-width:2px;}</style></defs><g id="Layer_2" data-name="Layer 2"><g id="Layer_1-2" data-name="Layer 1"><path id="Icon_feather-phone" data-name="Icon feather-phone" class="cls-1" d="M5.58,17,2,13.41A3.37,3.37,0,0,1,2,8.64a1.51,1.51,0,0,1,.23-.21,33.35,33.35,0,0,1,14-6.64,32.94,32.94,0,0,1,14.32,0,33.26,33.26,0,0,1,14,6.68A3.38,3.38,0,0,1,45,13.23l-.2.22L41.17,17a3.39,3.39,0,0,1-4.44.34,21.56,21.56,0,0,0-4.2-2.52,3.39,3.39,0,0,1-2-3.06v-3a27,27,0,0,0-14.32,0v3a3.38,3.38,0,0,1-2,3.06,21.78,21.78,0,0,0-4.19,2.52A3.37,3.37,0,0,1,5.58,17Z"/></g></g></svg>