<svg xmlns="http://www.w3.org/2000/svg" width="18.077" height="18.077" viewBox="0 0 18.077 18.077">
  <g id="password-eye-closed" transform="translate(0.938 0.943)">
    <path id="Path_805" data-name="Path 805" d="M2132.5,632.139a7.412,7.412,0,0,1-4.372,1.516c-5.152,0-8.1-5.888-8.1-5.888a13.561,13.561,0,0,1,3.728-4.372m2.826-1.34a6.7,6.7,0,0,1,1.546-.177c5.152,0,8.1,5.888,8.1,5.888a13.639,13.639,0,0,1-1.59,2.348m-4.946-.788a2.209,2.209,0,1,1-3.127-3.12h0" transform="translate(-2120.023 -619.671)" fill="none" stroke="#000" stroke-linecap="round" stroke-linejoin="round" stroke-width="1.333"/>
    <path id="Path_806" data-name="Path 806" d="M2120.027,619.671l16.192,16.192" transform="translate(-2120.023 -619.671)" fill="none" stroke="#000" stroke-linecap="round" stroke-linejoin="round" stroke-width="1.333"/>
  </g>
</svg>
