<svg xmlns="http://www.w3.org/2000/svg" viewBox="0 0 26.14 17.42"><defs><style>.cls-1{fill:#fff;}</style></defs><g id="Layer_2" data-name="Layer 2"><g id="Layer_1-2" data-name="Layer 1"><path id="Icon_awesome-video" data-name="Icon awesome-video" class="cls-1" d="M15.26,0H2.17A2.17,2.17,0,0,0,0,2.17H0V15.25a2.17,2.17,0,0,0,2.17,2.17H15.26a2.17,2.17,0,0,0,2.16-2.17h0V2.17A2.17,2.17,0,0,0,15.26,0Zm8.59,1.71-5,3.43v7.14l5,3.43a1.45,1.45,0,0,0,2-.36,1.48,1.48,0,0,0,.27-.81V2.88a1.47,1.47,0,0,0-1.49-1.43A1.55,1.55,0,0,0,23.85,1.71Z"/></g></g></svg>