<svg xmlns="http://www.w3.org/2000/svg" viewBox="0 0 29.78 24.11"><defs><style>.cls-1{fill:#2d8c81;}</style></defs><g id="Layer_2" data-name="Layer 2"><g id="Layer_1-2" data-name="Layer 1"><g id="aOipxw.tif"><g id="Group_119" data-name="Group 119"><path id="Path_75" data-name="Path 75" class="cls-1" d="M19.2,11.79l-8.42-.92a10.42,10.42,0,0,0-2.16-.22c-2.51.24-3.82-1.06-4.78-3.21S1.72,3.55.64,1.61C.42,1.21.25.77.06.36L.33,0,29.72,11.71l.06.52L0,24.11a9.36,9.36,0,0,1,.48-1.44c1.51-2.75,3-5.52,4.63-8.19a3,3,0,0,1,2-1c3.73-.46,7.49-.82,11.23-1.22.28,0,.55-.08.83-.12Z"/></g></g></g></g></svg>