<svg id="home" xmlns="http://www.w3.org/2000/svg" width="27" height="28" viewBox="0 0 27 28">
  <g id="home-2" data-name="home" transform="translate(-1962.427 -662.714)">
    <rect id="Rectangle_11" data-name="Rectangle 11" width="27" height="28" transform="translate(1962.427 662.714)" fill="rgba(45,140,127,0)"/>
    <path id="Path_9" data-name="Path 9" d="M1985.98,674.812l-8.952-9.152a1.16,1.16,0,0,0-1.642-.007l-.007.007-8.952,9.16a2.322,2.322,0,0,0-.673,1.661v9.731a2.322,2.322,0,0,0,2.194,2.32h16.506a2.322,2.322,0,0,0,2.2-2.32v-9.73a2.4,2.4,0,0,0-.673-1.672Zm-1.649,11.4h-16.255v-9.778l8.127-8.3,8.127,8.348Z" fill="#2d8c7f"/>
  </g>
</svg>
