<svg xmlns="http://www.w3.org/2000/svg" viewBox="0 0 19.09 27.76"><defs><style>.cls-1{fill:#fff;}</style></defs><g id="Layer_2" data-name="Layer 2"><g id="Layer_1-2" data-name="Layer 1"><path id="Icon_awesome-microphone" data-name="Icon awesome-microphone" class="cls-1" d="M9.54,19.09a5.21,5.21,0,0,0,5.21-5.21h0V5.2a5.21,5.21,0,0,0-10.41,0v8.68a5.21,5.21,0,0,0,5.2,5.21Zm8.68-8.68h-.87a.87.87,0,0,0-.87.87h0v2.6a6.94,6.94,0,0,1-7,6.94c-.23,0-.46,0-.68,0A7.15,7.15,0,0,1,2.6,13.57V11.28a.87.87,0,0,0-.86-.87H.87a.87.87,0,0,0-.87.87H0v2.18a9.84,9.84,0,0,0,8.24,9.85v1.85h-3a.87.87,0,0,0-.87.86h0v.86a.87.87,0,0,0,.86.87h8.68a.86.86,0,0,0,.87-.86h0V26a.87.87,0,0,0-.87-.87h-3V23.33a9.57,9.57,0,0,0,8.24-9.45v-2.6a.87.87,0,0,0-.87-.87Z"/></g></g></svg>