<svg xmlns="http://www.w3.org/2000/svg" viewBox="0 0 35.18 28.15"><defs><style>.cls-1{fill:#fff;}</style></defs><g id="Layer_2" data-name="Layer 2"><g id="Layer_1-2" data-name="Layer 1"><path id="Icon_awesome-microphone-slash" data-name="Icon awesome-microphone-slash" class="cls-1" d="M34.85,25.19l-8.68-6.71a9.54,9.54,0,0,0,1.1-4.41V11.44a.88.88,0,0,0-.88-.88h-.88a.87.87,0,0,0-.88.88v2.63A6.68,6.68,0,0,1,24,16.83l-1.46-1.12a5.39,5.39,0,0,0,.29-1.64V5.28a5.28,5.28,0,1,0-10.55,0V7.77L2.5.19A.87.87,0,0,0,1.27.34L.18,1.73A.89.89,0,0,0,.34,3h0L32.68,28a.89.89,0,0,0,1.24-.15h0L35,26.42a.88.88,0,0,0-.16-1.24ZM22,25.51H18.91V23.65a9.79,9.79,0,0,0,1.85-.45L18,21.07a8.37,8.37,0,0,1-1.12,0,7.12,7.12,0,0,1-6.11-5.6L7.92,13.27v.38a10,10,0,0,0,8.35,10v1.88H13.19a.88.88,0,0,0-.88.88h0v.88a.89.89,0,0,0,.88.88H22a.88.88,0,0,0,.88-.88v-.88A.87.87,0,0,0,22,25.51Z"/></g></g></svg>