<svg xmlns="http://www.w3.org/2000/svg" viewBox="0 0 27.28 29.32"><defs><style>.cls-1{fill:none;stroke:#000;stroke-linecap:round;stroke-linejoin:round;stroke-width:2px;}</style></defs><g id="Layer_2" data-name="Layer 2"><g id="Layer_1-2" data-name="Layer 1"><path id="Icon_feather-phone" data-name="Icon feather-phone" class="cls-1" d="M26.28,21.87l-.21,3.94a2.64,2.64,0,0,1-2.76,2.51l-.25,0a26,26,0,0,1-11.14-4.63,25.61,25.61,0,0,1-7.47-8.3A26,26,0,0,1,1,3.73,2.64,2.64,0,0,1,3.54,1h.23l4,.21a2.64,2.64,0,0,1,2.51,2.4A16.4,16.4,0,0,0,11,7.35a2.65,2.65,0,0,1-.74,2.75L8.46,11.68A21.09,21.09,0,0,0,15.94,20L17.7,18.4A2.63,2.63,0,0,1,20.5,18a16.72,16.72,0,0,0,3.65,1.11A2.65,2.65,0,0,1,26.28,21.87Z"/></g></g></svg>