<svg xmlns="http://www.w3.org/2000/svg" viewBox="0 0 28.93 23.14"><defs><style>.cls-1{fill:#fff;}</style></defs><g id="Layer_2" data-name="Layer 2"><g id="Layer_1-2" data-name="Layer 1"><path id="Icon_awesome-video-slash" data-name="Icon awesome-video-slash" class="cls-1" d="M28.65,20.71l-2.48-1.92a1.43,1.43,0,0,0,1.32-1.41V5.76A1.44,1.44,0,0,0,26,4.34a1.39,1.39,0,0,0-.81.26L20.25,8v6.21L18.81,13.1v-8a2.16,2.16,0,0,0-2.16-2.16H5.6L2.06.15A.73.73,0,0,0,1,.28L.15,1.42a.72.72,0,0,0,.13,1h0L1.93,3.71l16.88,13L26.88,23a.72.72,0,0,0,1-.13l.88-1.14a.72.72,0,0,0-.12-1ZM1.45,18.09a2.15,2.15,0,0,0,2.16,2.16h13A2.16,2.16,0,0,0,18,19.78L1.45,7Z"/></g></g></svg>