<svg xmlns="http://www.w3.org/2000/svg" viewBox="0 0 17.46 17.71"><defs><style>.cls-1{fill:#3f3f3f;}</style></defs><g id="Layer_2" data-name="Layer 2"><g id="Layer_1-2" data-name="Layer 1"><path id="Path_1145" data-name="Path 1145" class="cls-1" d="M8.74,0A9.08,9.08,0,0,0,.06,6.23H1.35a7.38,7.38,0,0,1,.47-1H4.3a8.64,8.64,0,0,0-.27,1H5.28a8.79,8.79,0,0,1,.32-1H8v1H9.2v-1h2.57a9,9,0,0,1,.36,1h1.25a8.73,8.73,0,0,0-.3-1h2.57a6.43,6.43,0,0,1,.48,1h1.28A9.08,9.08,0,0,0,8.74,0Zm1.82,1.42A7.9,7.9,0,0,1,14.81,4H12.56A8.34,8.34,0,0,0,10.56,1.42Zm-4,.09A8.27,8.27,0,0,0,4.77,4H2.67A7.83,7.83,0,0,1,6.56,1.51ZM9.2,1.9a7,7,0,0,1,2,2.09h-2ZM8,1.91V4H6.16A6.41,6.41,0,0,1,8,1.91ZM.42,7.4a.47.47,0,0,0-.3.08A.24.24,0,0,0,0,7.69a.76.76,0,0,0,.06.25L.7,9.79c0,.05,0,.12.07.18a.52.52,0,0,0,.1.18.43.43,0,0,0,.17.12.8.8,0,0,0,.27,0,.6.6,0,0,0,.32-.07.44.44,0,0,0,.17-.16l.12-.27.57-1.62.58,1.62c.05.13.08.21.11.27a.44.44,0,0,0,.17.16.62.62,0,0,0,.33.07A.64.64,0,0,0,4,10.24a.44.44,0,0,0,.16-.17,1.62,1.62,0,0,0,.11-.28l.65-1.85A1.14,1.14,0,0,0,5,7.69a.25.25,0,0,0-.13-.21.53.53,0,0,0-.3-.09.52.52,0,0,0-.27.07.29.29,0,0,0-.13.14,1.59,1.59,0,0,0-.07.2L3.63,9.38,3.12,7.9c0-.09-.07-.18-.11-.27a.44.44,0,0,0-.17-.16.62.62,0,0,0-.35-.08.83.83,0,0,0-.34.07A.49.49,0,0,0,2,7.63l-.12.27-.5,1.47L.89,7.79A.86.86,0,0,0,.75,7.5a.39.39,0,0,0-.33-.1Zm6.22,0a.47.47,0,0,0-.3.08.24.24,0,0,0-.12.21,1.14,1.14,0,0,0,.06.25l.64,1.85L7,10a.77.77,0,0,0,.1.18.66.66,0,0,0,.17.12.84.84,0,0,0,.27,0,.64.64,0,0,0,.33-.07A.41.41,0,0,0,8,10.08a1.59,1.59,0,0,0,.12-.27l.58-1.62.57,1.62a2.77,2.77,0,0,0,.12.27.44.44,0,0,0,.17.16.6.6,0,0,0,.32.07.62.62,0,0,0,.33-.07.46.46,0,0,0,.17-.17c0-.09.08-.19.11-.28l.64-1.85a1.14,1.14,0,0,0,.06-.25.24.24,0,0,0-.12-.21.57.57,0,0,0-.58,0,.35.35,0,0,0-.13.14,1.59,1.59,0,0,0-.07.2L9.86,9.38,9.35,7.9c0-.09-.07-.18-.12-.27a.44.44,0,0,0-.17-.16.57.57,0,0,0-.34-.08.84.84,0,0,0-.35.07.58.58,0,0,0-.18.17c0,.09-.08.18-.11.27L7.57,9.37,7.12,7.79A1.11,1.11,0,0,0,7,7.5.41.41,0,0,0,6.64,7.4Zm6.23,0a.44.44,0,0,0-.3.08.25.25,0,0,0-.13.21,1.14,1.14,0,0,0,.06.25l.65,1.85.06.18a.77.77,0,0,0,.1.18.66.66,0,0,0,.17.12.84.84,0,0,0,.27,0,.62.62,0,0,0,.33-.07.44.44,0,0,0,.17-.16l.12-.27.57-1.62.57,1.62a2.77,2.77,0,0,0,.12.27.44.44,0,0,0,.17.16.6.6,0,0,0,.32.07.62.62,0,0,0,.33-.07.46.46,0,0,0,.17-.17c0-.09.08-.19.11-.28l.64-1.85a.76.76,0,0,0,.06-.25.24.24,0,0,0-.12-.21.53.53,0,0,0-.3-.09.5.5,0,0,0-.27.07.29.29,0,0,0-.13.14,1.67,1.67,0,0,0-.08.2l-.46,1.58-.51-1.47a1.69,1.69,0,0,0-.11-.27.46.46,0,0,0-.17-.17.68.68,0,0,0-.34-.08.72.72,0,0,0-.35.08.49.49,0,0,0-.18.17,2.06,2.06,0,0,0-.12.26l-.5,1.48-.46-1.59a.72.72,0,0,0-.13-.28A.38.38,0,0,0,12.87,7.4ZM0,11.32a9.15,9.15,0,0,0,17.45,0H16.18a7.47,7.47,0,0,1-.43,1h-2.6a8.89,8.89,0,0,0,.28-1H12.2a9.1,9.1,0,0,1-.32,1H9.2v-1H8v1H5.54a8.94,8.94,0,0,1-.29-1H4c.07.34.15.68.25,1H1.73a7.53,7.53,0,0,1-.44-1Zm2.51,2.22H4.69a7.78,7.78,0,0,0,1.79,2.63A7.92,7.92,0,0,1,2.52,13.54Zm3.52,0H8V15.8A5.76,5.76,0,0,1,6,13.54Zm3.16,0h2.07a6.53,6.53,0,0,1-2.08,2.2Zm3.47,0H15a7.88,7.88,0,0,1-4.44,2.76A8.19,8.19,0,0,0,12.67,13.54Z"/></g></g></svg>