<svg xmlns="http://www.w3.org/2000/svg" viewBox="0 0 17.84 17.87"><defs><style>.cls-1{fill:none;stroke:#3f3f3f;stroke-linecap:round;stroke-linejoin:round;stroke-width:2px;}</style></defs><g id="Layer_2" data-name="Layer 2"><g id="Layer_1-2" data-name="Layer 1"><path id="Icon_feather-phone" data-name="Icon feather-phone" class="cls-1" d="M16.84,12.88v2.39a1.6,1.6,0,0,1-1.59,1.6H15.1a15.83,15.83,0,0,1-6.87-2.45A15.57,15.57,0,0,1,3.45,9.64,15.81,15.81,0,0,1,1,2.74,1.59,1.59,0,0,1,2.45,1H5A1.59,1.59,0,0,1,6.57,2.37a10.21,10.21,0,0,0,.56,2.24,1.58,1.58,0,0,1-.36,1.68l-1,1a12.82,12.82,0,0,0,4.78,4.78l1-1a1.58,1.58,0,0,1,1.68-.36,10.07,10.07,0,0,0,2.24.56,1.59,1.59,0,0,1,1.37,1.62Z"/></g></g></svg>